<svg xmlns="http://www.w3.org/2000/svg" enable-background="new 0 0 1080 1080" viewBox="0 0 1080 1080"><path fill="#f7f7f7" d="M1035,1065H53c-6.6,0-12-5.4-12-12v-47c0-6.6,5.4-12,12-12h982c6.6,0,12,5.4,12,12v47
	C1047,1059.6,1041.6,1065,1035,1065z"/><circle cx="552" cy="677" r="334" fill="#f3faff"/><path fill="#ffbe55" d="M966,912.9c7.1-18.1,14.3-38.2,7.6-56.4c-1.6-4.4-4.1-9.1-2.6-13.6c2-6.1,10-8.2,12.6-14
			c3-6.4-1.7-13.8-0.5-20.7c1.2-7,8.1-11.6,14.8-14.1c6.7-2.5,14-4.1,19.4-8.7c10.3-9,9.1-25.1,6.8-38.7c-2.3-13.5-4-29.5,5.9-39
			c-18.2,3.5-36.8,7.1-52.6,16.7S949,751,949.9,769.5c0.5,9.3,4.1,19.2-0.1,27.4c-4.6,8.9-16.9,12.4-20,21.9
			c-3.6,10.9,7.1,20.9,11.3,31.6c4,10.1,2.1,21.4,3,32.1c0.9,10.8,6.5,23,17.2,24.6L966,912.9z"/><path fill="#fff" d="M966,912.9c7.1-18.1,14.3-38.2,7.6-56.4c-1.6-4.4-4.1-9.1-2.6-13.6c2-6.1,10-8.2,12.6-14
			c3-6.4-1.7-13.8-0.5-20.7c1.2-7,8.1-11.6,14.8-14.1c6.7-2.5,14-4.1,19.4-8.7c10.3-9,9.1-25.1,6.8-38.7c-2.3-13.5-4-29.5,5.9-39
			c-18.2,3.5-36.8,7.1-52.6,16.7S949,751,949.9,769.5c0.5,9.3,4.1,19.2-0.1,27.4c-4.6,8.9-16.9,12.4-20,21.9
			c-3.6,10.9,7.1,20.9,11.3,31.6c4,10.1,2.1,21.4,3,32.1c0.9,10.8,6.5,23,17.2,24.6L966,912.9z" opacity=".31"/><path fill="none" stroke="#fff" stroke-linecap="round" stroke-miterlimit="10" stroke-width=".75" d="M958.7,889.2c-0.2-52.6,10-162.7,70.7-181.1"/><path fill="#ffbe55" d="M923.7,908.5c-10.8-20.2-22-42.7-16.7-65c1.3-5.4,3.5-11.2,1.2-16.3c-3.1-6.8-12.8-8.3-16.7-14.7
			c-4.3-7,0.1-16.4-2.3-24.3c-2.4-8.1-11.1-12.4-19.2-14.5c-8.1-2-16.9-2.8-23.9-7.6c-13.3-9.1-14.1-28.2-13.3-44.3
			c0.8-16.1,0.6-35.1-12.3-44.8c21.8,1.6,44.1,3.3,63.9,12.4c19.8,9.1,37,27.3,38.4,49.1c0.7,10.9-2.2,23,3.9,32.1
			c6.6,9.8,21.5,12.2,26.5,22.9c5.7,12.3-5.4,25.4-8.9,38.5c-3.2,12.3,0.5,25.3,0.9,38c0.4,12.7-4.5,27.8-16.8,31.2L923.7,908.5z"/><path fill="none" stroke="#fff" stroke-linecap="round" stroke-miterlimit="10" stroke-width=".75" d="M929,879.7C922,818,895,690.5,821.3,677.4"/><path fill="#cce9ff" d="M992,1027h-95c-6.6,0-12-5.4-12-12l-8-137c0-6.6,5.4-12,12-12h111c6.6,0,12,5.4,12,12l-8,137
	C1004,1021.6,998.6,1027,992,1027z"/><rect width="62" height="278" x="151" y="585.7" fill="#ffbe55" transform="rotate(-8.622 181.92 724.472)"/><rect width="31" height="278" x="181.8" y="583.4" fill="#ffbe55" transform="rotate(-8.622 197.24 722.15)"/><polygon fill="#ffebc2" points="191.9 582.9 130.6 592.2 145 555.3 153.2 534.5 167.2 552"/><polygon fill="#0e538c" points="167.2 552 145 555.3 153.2 534.5"/><rect width="62" height="278" x="228.6" y="521.9" fill="#ffbe55" transform="matrix(.996 .08919 -.08919 .996 59.978 -20.52)"/><rect width="31" height="278" x="259.6" y="523.3" fill="#ffbe55" transform="matrix(.996 .08919 -.08919 .996 60.162 -21.892)"/><polygon fill="#ffebc2" points="302.9 525.5 241.1 520 263.9 487.6 276.8 469.3 286.2 489.6"/><polygon fill="#0e538c" points="286.2 489.6 263.9 487.6 276.8 469.3"/><polygon fill="#cce9ff" points="343.5 1028 99.9 1028 68 651 363 651"/><polygon fill="#cce9ff" points="215.5 1028 343.5 1028 363 651 215.5 651" opacity=".5"/><rect width="619" height="85.1" x="269" y="921.6" fill="#ffebc2"/><path fill="#ffbe55" d="M271.6,921.6v85.1H921v6.4c0,7.9-6.9,14.3-15.4,14.3H274.4c-20.1,0-36.4-15-36.4-33.6v-56.9
	c0-18.6,16.3-33.6,36.4-33.6h631.2c8.5,0,15.4,6.4,15.4,14.3v4.1H271.6z"/><rect width="619" height="47.1" x="269" y="959.5" fill="#ffebc2"/><rect width="503" height="74" x="349" y="818" fill="#cce9ff"/><path fill="#2a94f4" d="M349,818v74h522v5.6c0,6.9-5.6,12.4-12.4,12.4H351.2c-16.1,0-29.2-13.1-29.2-29.2v-49.5
	c0-16.1,13.1-29.2,29.2-29.2h507.4c6.8,0,12.4,5.6,12.4,12.4v3.6H349z"/><path fill="#0e538c" d="M566.4,566.1c-6.9-9.1-7.5-21.6-1-31.1c5.2-7.6,8.7-17,8.3-23.9c-0.8-12.4-8.5-23.8-19-30.6
		c-13.8-9-32.2-10.3-47.1-3.3c-14.9,7-25.7,22-27.6,38.3c-1.4,11.7,1.3,24.5-4.7,34.7c-4.4,7.3-12.5,11.6-20.5,14.5
		c-8.1,2.8-16.6,4.7-24,9c-7.4,4.3-13.7,11.7-13.6,20.3c0.1,6.5,3.8,12.5,4.2,18.9c0.6,9.4-6,17.7-13,23.9
		c-7.1,6.2-15.2,11.6-20,19.7c-7.9,13.4-4.2,31.5,5.8,43.5s25,18.7,40,22.6c41,10.8,84.2,3.8,126.5,3.1c13.1-0.2,26.5,0.2,39.2-3.1
		c12.7-3.3,25.1-10.9,30.4-22.9c5.4-12,2.7-26.6-4.5-37.5s-18.5-18.8-30.4-24.4c-8.6-4.1-17.8-7.3-24.8-13.7
		c-7-6.4-11.1-17.3-6.4-25.6c1.8-3.2,4.8-5.7,6.5-8.9c3.4-6.2,2-14.1-1.8-20.1C568.2,568.5,567.4,567.4,566.4,566.1z"/><rect width="503" height="41" x="349" y="851" fill="#cce9ff"/><path fill="#0b4870" d="M576,746l62,44l76,157h-14l-85-139c0,0-29,1-39-8s-67.5-48-67.5-48L576,746z"/><path fill="#0e538c" d="M466.3,733.4C455,764,463,807,501,809s50,0,50,0l74,150h17l-58-168l-70.5-39L466.3,733.4z"/><path fill="#4ea3fb" d="M524,559c10,13,34,49,43,89s34,98,34,98h-29l-28-95l-26-89L524,559z"/><path fill="#ffe3ca" d="M554.8,505.9c1.5,24.5-9.2,41.3-24.5,42.1c-15.3,0.8-25.3-21.4-20.7-42.1c10.7-18.4,25.3-19.9,25.3-19.9h9.2
	L554.8,505.9z"/><path fill="#0e538c" d="M544.6,491.3c-2.8,8.6-9,16-17,20.2c-8,4.2-17.6,5.2-26.3,2.6l21.8-31.1h18.7l17.9,14.2l-2.7,16.3
		C550,508.2,544.6,491.3,544.6,491.3z"/><path fill="#ffe3ca" d="M525.7,545.1c-3.2,12.4-2.2,25.4-2.2,27.4c-3,4-17,3-19-11c3-18,9-38,9-38l5,11L525.7,545.1z"/><path fill="#2a94f4" d="M506.5,550.9C494,555,452,574,450,578c3,11,18,174,18,174h68c0,0-9-90-4-96s21-27,19-30s-27.4-67.5-27.4-67.5
	L506.5,550.9z"/><path fill="#4ea3fb" d="M450,578c-9.8,7.5-51,75-38,111s55.5,57.2,55.5,57.2v-19.8c0,0-34.5-27.4-32.5-47.4s26-61,26-61L450,578z"/><path fill="#ffbe55" d="M611.1,763.5H463.9c-4.6,0-8.4-3.8-8.4-8.4l-4-94.2c0-4.6,3.8-8.4,8.4-8.4h153.2c4.6,0,8.4,3.8,8.4,8.4l-2,94.2
	C619.5,759.7,615.7,763.5,611.1,763.5z"/><path fill="#1a87d8" d="M639.6 959c9.9 2.2 23.3 13.1 29.7 18.7 1.3 1.1.5 3.3-1.3 3.3-10.3-.2-33.6-1.3-39-5.9-7-6-5-16-5-16H639.6zM713.8 946.6c8.8 2.4 20.4 12.6 26.2 18.1 1.3 1.2.3 3.3-1.4 3.2-9.7-.7-30.5-2.6-35.2-7.1-6.2-5.8-3.9-14.9-3.9-14.9L713.8 946.6z"/><circle cx="537" cy="708" r="15" fill="#fff"/><polygon fill="#ffbe55" points="405 921 386 910 367 921 367 851 405 851"/><path fill="#ffbe55" d="M699.6 506.5c0 1.9-.7 3.6-1.9 5 1.2 1.3 1.9 3.1 1.9 5v6.2c0 1.3-.4 2.6-1 3.7.6 1.1 1 2.4 1 3.7v6.2c0 4.1-3.3 7.4-7.4 7.4h-64.4c-4.1 0-7.4-3.3-7.4-7.4V530c0-1.3.4-2.6 1-3.7-.6-1.1-1-2.4-1-3.7v-6.2c0-1.9.7-3.6 1.9-5-1.2-1.3-1.9-3.1-1.9-5v-6.2c0-4.1 3.3-7.4 7.4-7.4h64.4c4.1 0 7.4 3.3 7.4 7.4V506.5zM751 366.3c0 36.1-21 67.2-51.4 82v33.6c0 2.5-2.1 4.6-4.6 4.6H625c-2.5 0-4.6-2.1-4.6-4.6v-33.6c-30.4-14.7-51.4-45.9-51.4-82 0-50.3 40.7-91 91-91S751 316.1 751 366.3z"/><line x1="691" x2="630" y1="512" y2="512" fill="none" stroke="#7f7f7f" stroke-linecap="round" stroke-miterlimit="10" stroke-width="2" opacity=".23"/><line x1="691" x2="630" y1="526" y2="526" fill="none" stroke="#7f7f7f" stroke-linecap="round" stroke-miterlimit="10" stroke-width="2" opacity=".23"/><g><path fill="#fff" d="M675.6,377.5c-1.1-1-2.7-1.5-4.4-1.3c-2.1,0.2-4.1,1.4-5.4,3.1c-1.1,1.5-1.7,3.3-2,5c-0.9-0.5-1.9-1-2.8-1.6
		l-0.3-0.2h-1.3l-0.3,0.2c-1,0.6-1.9,1.1-2.8,1.6c-0.3-1.7-0.9-3.5-2-5c-1.2-1.7-3.3-2.9-5.4-3.1c-1.7-0.2-3.2,0.3-4.4,1.3
		c-1.5,1.4-2,3.4-1.5,5.5c0.8,2.8,3.1,5.1,5.8,5.6c1.7,0.3,3.3,0.2,5-0.2v0c2.5,32.5,3.5,65.4,2.8,97.9h3
		c0.7-32.6-0.3-65.6-2.8-98.1c0-0.3,0-0.6-0.1-0.9c1.2-0.5,2.3-1.1,3.4-1.8c1.1,0.6,2.2,1.3,3.4,1.8c0,0.3,0,0.6-0.1,0.9
		c-2.5,32.5-3.5,65.5-2.8,98.1h3c-0.7-32.5,0.3-65.5,2.8-97.9v0c1.6,0.4,3.3,0.6,5,0.2c2.6-0.5,5-2.8,5.8-5.6
		C677.6,380.9,677.1,378.9,675.6,377.5z M649.3,385.8c-1.5-0.3-3-1.8-3.5-3.5c-0.2-0.7-0.3-1.8,0.6-2.5c0.5-0.5,1.2-0.6,1.7-0.6
		c0.1,0,0.2,0,0.4,0c1.2,0.1,2.5,0.8,3.3,1.9c0.9,1.2,1.4,2.7,1.6,4.4C652,385.9,650.7,386,649.3,385.8z M674.2,382.3
		c-0.5,1.7-1.9,3.2-3.5,3.5c-1.3,0.3-2.7,0.1-4-0.3c0.3-1.7,0.7-3.2,1.6-4.4c0.7-1,2-1.7,3.3-1.9c0.6-0.1,1.4,0,2.1,0.6
		C674.4,380.5,674.3,381.6,674.2,382.3z"/></g><path fill="none" stroke="#fff" stroke-linecap="round" stroke-miterlimit="10" stroke-width="4" d="M636,292c-22,8-58,37-55,84"/><circle cx="515.5" cy="429.5" r="25.5" fill="#ffbe55"/><circle cx="788.5" cy="345.5" r="11.5" fill="#ffbe55"/><circle cx="751" cy="526" r="19" fill="#ffbe55"/><circle cx="569" cy="261" r="19" fill="#ffbe55"/><polygon fill="#0c0c0c" points="405 921 386 910 367 921 367 851 405 851" opacity=".14"/></svg>