<svg xmlns="http://www.w3.org/2000/svg" version="1.1" viewBox="0 0 3000 3000" width="3000" height="3000">
<defs/><!--ITEM: Illustration component 1--><g transform="translate(163.88888888888889 2650.0) rotate(0.0 215.27777777777777 44.44444444444434)  scale(0.6675279931093885 0.6785411365564021)"><svg width="645.0" height="131.0" viewBox="0.0 0.0 645.0 131.0"><ellipse cx="322.5" cy="65.5" fill="#5b2448" rx="322.5" ry="65.5"/></svg></g><!--ITEM: Illustration component 2--><g transform="translate(147.22222222222223 341.66666666666663) rotate(0.0 952.7777777777778 1186.111111111111)  scale(1.2326632029908795 1.2333547653997483)"><svg width="1545.885" height="1923.39" viewBox="0.0 0.0 1545.885 1923.39"><clipPath id="a-i2"><path d="m666.372 7a41.254 41.254 0 0 0 -35.827 11.232c-24.389-35.979-74.873-12.967-72.827 19.426-44.881-16.7-77.123 37.678-52.044 66.4 9.206 10.546 26.073 33.321 26.873 55.716 20.238 2.654 66.676 36.044 66.676 36.044s54.287-100.451 81.857-118.863c34.42-22.984 13.155-64.584-14.708-69.955z" fill="#000000"/></clipPath><clipPath id="b-i2"><path d="m748.647 187.757c4.48 10.615 2.435 23.882-6.9 34.1-24.3 26.613-66.5 30.455-66.5 30.455s6.577 36.575 17.961 70.647c0 0 0 34.944-5.139 53.444-39.055 0-111-19.528-144.916-52.417 0 0 18.5-32.888 22.922-90.47-21.98 4.132-61.852-7.147-66.116-37.372-2.43-17.241 10.46-36.239 28.94-36.95 17.945-.691 27.4 7.041 45.365 17.042 16.669 9.281 17.767.613 20.624-18.216a121.692 121.692 0 0 1 15.383-42.534c13.412-21.777 47.435-33.424 70.808-38.535a409.581 409.581 0 0 0 20.321 50.187c13.692 28.603 36.794 35.843 47.247 60.619z" fill="#000000"/></clipPath><clipPath id="c-i2"><path d="m302.655 1727.53c-36.2 17.924-60.639 28.151-60.639 28.151s-155.163-10.34-128.472-64.75c20.052-20.823 49.374-46.435 78.183-70.29l109.9 105.234z" fill="#000000"/></clipPath><clipPath id="d-i2"><path d="m1381.405 1445.032c-13.57 48.62-28.9 92.39-29.38 93.76l-.01.03s-.08 0-.23.01c-.09 0-.22.01-.38.01a1.848 1.848 0 0 1 -.24.01c-11.65.31-138.92 2.8-129.19-41.02 0-.19-3-6.82-3-7 3.46-15.44 6.59-32.59 9.3-49.76z" fill="#000000"/></clipPath><clipPath id="e-i2"><path d="m973.253 798.285c100.233 21.093 245.149 34.454 377.732 185.537s42.139 415.221 42.139 415.221-87.725 21.066-158.373-23.009c-71.849-44.824-123.238-77.713-143.793-38.658 0 0 12.513-24.784 57.555-94.555 52.417-81.194-58.583-169.583-289.832-193.222-23.639 225.083-248.722 528.277-514.915 656.749-57.556-32.889-92.5-93.528-103.806-141.833s-19.527-153.139-80.166-135.667c76.055-42.138 180.371-34.073 275.443-90.444 116.139-68.861 66.863-284.842 94.071-396.281z" fill="#000000"/></clipPath><clipPath id="f-i2"><path d="m1009.722 648.963c-31.778 12.939-72.735 23.721-103.764 27.554-83.249 10.278-228.34 10.72-329.915 41.111-78.8 72.736-124.084 164.465-136.273 214.24v.02c-4.337 17.74-4.471 30.145-.421 34.462-42.139-11.306-70.722-42.745-78.111-58.583a39.453 39.453 0 0 1 -2.056-28.778c-37-38.028-81.194-152.111-20.555-334.027 59.8-179.388 154.7-215.278 188.73-200.056 2.353-2.446 10.555-11.306 15.8-20.916 33.916 32.889 104.833 51.389 143.888 51.389a263.612 263.612 0 0 0 6.167-52.416c138.088-80.239 289.727 262.185 316.51 326z" fill="#000000"/></clipPath><clipPath id="g-i2"><path d="m1402.374 684.739c-9.25-2.055-23.639-1.027-23.639-1.027s11.305-28.778 15.416-50.361-5.139-21.584-20.555 3.083c4.111-22.611 0-42.139-22.611 0 2.055-24.667-1.028-38.028-35.972 17.472 2.055-17.472 0-26.722-27.75 10.278s-68.861 55.5-68.861 55.5h-63.722l-3.809 1.972c4.191-2.691 8.216-5.4 12.031-8.139 36.258-26.01 32.889-46.25 16.444-37 24.667-29.805 0-24.666-15.416-17.472 5.139-4.111 24.666-27.75-21.583-13.361-56.793 17.669-118.195 49.333-79.139-1.028 17.511-22.58 9.936-30.808-23.639-10.278-30.851 18.865-91.422 36.931-133.611 42.139-83.249 10.278-228.34 10.719-329.915 41.111-130.528 39.056-136.27 214.257-136.27 214.257a262.457 262.457 0 0 0 41.476 8.315c157.425 18.841 339.479-93.271 455.543-130.072q18.836-5.973 36.477-11.85l-.016.007c42.677 8.76 261.593 67.343 384.926-78.6 28.778-20.557 69.911-29.231 44.195-34.946z" fill="#000000"/></clipPath><clipPath id="h-i2"><path d="m798.767 651.08 59.4-37.711c33.154 52.22 59.632 134.89 67.455 210.613l-69.985 7.231c-6.686-64.696-29.537-137.086-56.87-180.133z" fill="#000000"/></clipPath><path d="m543.154 323.99c-6.167 11.306-16.445 21.584-16.445 21.584l49.334 372.054s279.554-3.083 437.832-58.583c0 0-168.555-424.471-320.666-336.082z" fill="#66b0f0"/><path d="m666.372 7a41.254 41.254 0 0 0 -35.827 11.232c-24.389-35.979-74.873-12.967-72.827 19.426-44.881-16.7-77.123 37.678-52.044 66.4 9.206 10.546 26.073 33.321 26.873 55.716 20.238 2.654 66.676 36.044 66.676 36.044s54.287-100.451 81.857-118.863c34.42-22.984 13.155-64.584-14.708-69.955z" fill="#5b2448"/><g clip-path="url(#a-i2)"><path d="m617.522 45.349h-.042a2.5 2.5 0 0 1 -2.459-2.54c.4-24.418 22.292-36.491 23.223-36.993a2.5 2.5 0 0 1 2.374 4.4c-.246.134-20.245 11.256-20.6 32.675a2.5 2.5 0 0 1 -2.496 2.458z" fill="#9b3c82"/></g><path d="m748.647 187.757c4.48 10.615 2.435 23.882-6.9 34.1-24.3 26.613-66.5 30.455-66.5 30.455s6.577 36.575 17.961 70.647a263.612 263.612 0 0 1 -6.167 52.416c-39.055 0-109.972-18.5-143.888-51.389 0 0 18.5-32.888 22.922-90.47-21.98 4.132-61.852-7.147-66.116-37.372-2.43-17.241 10.46-36.239 28.94-36.95 17.945-.691 27.4 7.041 45.365 17.042 16.669 9.281 17.767.613 20.624-18.216a121.692 121.692 0 0 1 15.383-42.534c13.412-21.777 47.435-33.424 70.808-38.535a409.581 409.581 0 0 0 20.321 50.187c13.692 28.603 36.794 35.843 47.247 60.619z" fill="#f4ada2"/><g fill="#5b2448"><path d="m612.382 132.253-.53-1.77c-.148-.552-.274-1.1-.369-1.644a23.724 23.724 0 0 1 -.371-3.276 27.6 27.6 0 0 1 .494-6.551 29.361 29.361 0 0 1 5.66-12.464 26.653 26.653 0 0 1 5.167-5.128 24.235 24.235 0 0 1 6.487-3.467 21.278 21.278 0 0 1 7.092-1.225 16.736 16.736 0 0 1 6.892 1.364 5.506 5.506 0 0 1 1.908 8.7l-.684.761c-1.351 1.506-2.571 2.564-3.616 3.666-1.076 1.031-1.97 2.04-2.829 2.92-1.677 1.813-3.148 3.351-4.761 5.132-1.6 1.764-3.214 3.826-5.013 6.149l-2.807 3.694c-.482.65-1 1.311-1.53 1.984a11.082 11.082 0 0 1 -4.524 3.662 6.464 6.464 0 0 1 -3 .537 4.227 4.227 0 0 1 -3.307-2.185 4.6 4.6 0 0 1 -.359-.859z"/><path d="m626.05 144.212c4.586-2.656 15.733-8.774 24.9-17.977a3.277 3.277 0 0 1 4.66.01c3.308 3.34 7.695 9.678.645 15.146-8.662 6.719-25.494 8.82-30.32 5.674a1.684 1.684 0 0 1 .115-2.853z"/><path d="m690.106 112.293c-4.787 2.273-8.6 3.115-18.093 5a3.3 3.3 0 0 0 -2.633 3.846c.878 4.618 4.533 8.374 11.912 6.811 8.218-1.742 11.257-9.237 11.23-14.14a1.692 1.692 0 0 0 -2.416-1.517z"/></g><g clip-path="url(#b-i2)"><path d="m555.058 240.111a27.33 27.33 0 0 1 -3.077-.145 2.5 2.5 0 0 1 .6-4.964 45.416 45.416 0 0 0 27.138-7.4 2.5 2.5 0 1 1 2.7 4.208 51.415 51.415 0 0 1 -27.361 8.301z" fill="#9b3c82"/><g fill="#5b2448"><path d="m702.458 87.686-.962-1.364c-.31-.414-.628-.809-.963-1.181a21.245 21.245 0 0 0 -2.121-2.092 24.849 24.849 0 0 0 -4.932-3.306 26.518 26.518 0 0 0 -12.017-2.936 24.151 24.151 0 0 0 -6.529.809 21.9 21.9 0 0 0 -6.086 2.676 19.249 19.249 0 0 0 -4.829 4.356 15.123 15.123 0 0 0 -2.877 5.66 4.976 4.976 0 0 0 5.117 6.213l.923-.062c1.824-.119 3.257-.4 4.624-.524 1.333-.189 2.549-.261 3.654-.38 2.225-.18 4.139-.367 6.3-.518 2.15-.156 4.513-.149 7.169-.131l4.192.067c.73.021 1.491.021 2.264.021a10.013 10.013 0 0 0 5.128-1.171 5.864 5.864 0 0 0 2.056-1.831 3.819 3.819 0 0 0 .292-3.57 4.194 4.194 0 0 0 -.403-.736z"/><path d="m675.248 252.316s-27.948.619-45.563-8.533c-4.179 4.786 6.485 40.516 51.555 39.187 34.589-1.021-5.992-30.654-5.992-30.654z"/></g></g><circle cx="628.05" cy="184.727" fill="#e57281" opacity=".52" r="21.991"/><path d="m700.983 175.56a14.314 14.314 0 0 1 -3.431 5.064 19.347 19.347 0 0 1 -4.912 3.431 21.368 21.368 0 0 1 -11.77 2.165 21.637 21.637 0 0 1 -5.877-1.62 19.944 19.944 0 0 1 -5.113-3.3 16.822 16.822 0 0 1 -5.688-10.426 2.245 2.245 0 0 1 4.26-1.216l.053.114a16.563 16.563 0 0 0 9.151 8.482 16.253 16.253 0 0 0 4.052 1.022 18.655 18.655 0 0 0 8.349-1.095 16.055 16.055 0 0 0 7-4.727l.086-.106a2.243 2.243 0 0 1 3.837 2.21z" fill="#9b3c82"/><path d="m567.046 205.021a2.5 2.5 0 0 1 -2.037-1.048c-17.6-24.66-39.886-15.775-40.826-15.384a2.5 2.5 0 0 1 -1.938-4.609c.266-.113 26.849-10.907 46.834 17.088a2.5 2.5 0 0 1 -2.033 3.953z" fill="#9b3c82"/><path d="m687.347 153.2a2 2 0 0 1 -1.591-3.21c3.037-4 4.319-6.836 3.917-8.684-.448-2.064-3.174-3.661-7.61-6.046-12.346-6.639-12.44-14.34-12.438-14.665a2 2 0 0 1 2-1.987h.013a2 2 0 0 1 1.987 1.979c.009.172.409 5.814 10.332 11.149 4.7 2.526 8.753 4.706 9.625 8.722.683 3.145-.749 6.831-4.64 11.952a2 2 0 0 1 -1.595.79z" fill="#5b2448"/><path d="m343.766 1706.348c-54.473-32.889-90.946-88.842-101.75-142.861-10.278-51.389-22.907-157.022-82.222-134.639-54.472 20.552-31.861 182.944 183.972 277.5z" fill="#5b2448"/><path d="m343.765 1706.352c-14.76 7.9-28.63 14.99-41.11 21.18-36.2 17.92-60.64 28.15-60.64 28.15s-155.16-10.34-128.47-64.75c20.05-20.82 49.37-46.44 78.18-70.29q5.16-4.275 10.27-8.46 5.595-4.56 11.07-8.99l.01-.01c11.5-9.29 22.5-18.02 32.31-25.71 15.47-12.15 28-21.73 34.93-27 3.79-2.87 5.9-4.46 5.9-4.46l14.93 41.59z" fill="#f4ada2"/><path d="m1393.124 1399.043c-42.139 8.222-123.987.413-177.857-34.894-53.393-34.995-105-61.912-122.974-29.575-19.835 35.691 67.526 145.663 300.831 64.469z" fill="#5b2448"/><path d="m1393.125 1399.042c-3.31 14.67-7.28 29.98-11.41 44.86-.1.38-.2.75-.31 1.13-13.57 48.62-28.9 92.39-29.38 93.76l-.01.03s-.08 0-.23.01c-.09 0-.22.01-.38.01a1.848 1.848 0 0 1 -.24.01c-11.65.31-138.92 2.8-129.19-41.02 0-.19-3-6.82-3-7 3.46-15.44 6.59-32.59 9.3-49.76.69-4.33 1.34-8.67 1.97-12.98q.84-5.79 1.62-11.48c.15-1.1.29-2.2.44-3.29 1.77-13.25 3.22-25.93 4.33-37.21 1.37-13.84 2.2-25.57 2.43-33.63.01-.23.01-.46.02-.69a79.406 79.406 0 0 0 -.11-7.96c-3.45-41.43 152.1 63.82 154.13 65.2z" fill="#f4ada2"/><path d="m1393.125 1399.042c-65.52 22.8-119.53 30.53-162.88 29.05q.84-5.79 1.62-11.48c.15-1.1.29-2.2.44-3.29 1.77-13.25 3.22-25.93 4.33-37.21 52.33 25.04 119.62 30.12 156.49 22.93z" fill="#9b3c82"/><path d="m343.765 1706.352c-62.53-27.4-108.84-60.49-141.77-94.17q5.595-4.56 11.07-8.99l.01-.01c11.5-9.29 22.5-18.02 32.31-25.71 13.85 49.5 48.6 98.82 98.38 128.88z" fill="#9b3c82"/><path d="m1381.405 1445.032c-13.57 48.62-28.9 92.39-29.38 93.76l-.01.03s-.08 0-.23.01c-.09 0-.22.01-.38.01a1.848 1.848 0 0 1 -.24.01c-11.65.31-138.92 2.8-129.19-41.02 0-.19-3-6.82-3-7 3.46-15.44 6.59-32.59 9.3-49.76z" fill="#66b0f0"/><path d="m302.655 1727.53c-36.2 17.924-60.639 28.151-60.639 28.151s-155.163-10.34-128.472-64.75c20.052-20.823 49.374-46.435 78.183-70.29l109.9 105.234z" fill="#66b0f0"/><g clip-path="url(#c-i2)"><path d="m288.778 1757.084a4.982 4.982 0 0 1 -3.321-1.263l-138.75-123.333a5 5 0 1 1 6.645-7.474l138.748 123.333a5 5 0 0 1 -3.324 8.737z" fill="#fff"/></g><g clip-path="url(#d-i2)"><path d="m1436.977 1477.832h-.105l-241.184-4.929a5 5 0 0 1 .1-10h.105l241.184 4.929a5 5 0 0 1 -.1 10z" fill="#fff"/></g><path d="m1218.975 1490.832s-28.231 124.164-40.931 194.141c0 0 216.8 8.821 293.878 2.4 41.832-3.486 61.876-19.173 71.463-30.5 0 0-.018-.044-.053-.14-.026-.07-.061-.174-.113-.3a.009.009 0 0 0 -.009-.009c-2.231-5.307-25.691-57.676-101.608-95.882-11.836-5.951-49.854-22.562-93.655-27.759-29.97-3.556-55.467-2.234-74.67-8.636-24.383-8.127-40.587-33.823-54.302-33.315z" fill="#fff"/><path d="m1219.975 1488.832c21.334 5.08 29.4 25.29 55.441 34.842 16.872 6.187 64.866 2.618 99.77 12.056 1.263.34 2.51.68 3.756 1.02.348.1.688.183 1.028.279q11.073 3.086 21.221 6.588 2.026.693 4.018 1.4c1.917.688 3.8 1.377 5.664 2.082q2.2.825 4.34 1.673c1.186.463 2.354.933 3.521 1.412.724.288 1.447.584 2.162.881q2.588 1.084 5.115 2.179a.8.8 0 0 1 .114.043c.584.262 1.167.514 1.751.776 1.944.854 3.87 1.734 5.761 2.614.41.192.828.393 1.237.584q3.426 1.621 6.728 3.277 3.2 1.608 6.284 3.259 1.176.615 2.327 1.255 3.516 1.909 6.858 3.87l1.569.915c.523.305 1.037.61 1.551.924.994.592 1.97 1.193 2.946 1.786 1.046.645 2.074 1.29 3.094 1.944.488.313.976.618 1.464.932q5.112 3.294 9.787 6.623c1.342.951 2.649 1.9 3.939 2.859.863.627 1.708 1.264 2.545 1.909.418.322.837.636 1.255.958 1.333 1.02 2.641 2.048 3.913 3.068.305.252.61.5.924.749q2.941 2.379 5.691 4.759c.366.322.732.636 1.089.95.7.6 1.386 1.211 2.065 1.821q.563.5 1.125 1.02c.688.627 1.377 1.255 2.048 1.874.331.313.671.627 1 .941s.653.619.985.932.653.619.976.933q1.451 1.4 2.832 2.78l.915.915c.3.305.6.619.9.915.6.61 1.194 1.22 1.76 1.822.288.3.575.609.863.906.575.61 1.133 1.2 1.673 1.795s1.09 1.194 1.621 1.778 1.064 1.176 1.569 1.76c.288.323.575.645.845.968.985 1.124 1.926 2.231 2.841 3.329v.008c.471.567.933 1.125 1.386 1.682s.9 1.107 1.333 1.656.863 1.09 1.282 1.63c3.878 4.976 7.05 9.552 9.6 13.561.2.313.392.618.584.923-66.609 46.991-133.546 21.834-171.944 5.668-33.117-13.944-42.2 4.353-69.22-4.362-22.563-7.278-26.554-26.176-55.313-29.662-26.877-3.26-50.584 13.937-50.584 13.937s10.995-62.996 31.995-137.996z" fill="#5b2448"/><path d="m1200.851 1591.145a20.089 20.089 0 0 1 -3.486-.249 3 3 0 0 1 1.1-5.9c.264.044 15.515 2.4 35.827-14.848 1.763-1.5 3.418-2.929 5-4.3 14.829-12.839 23.781-20.588 53.174-21.591a3 3 0 1 1 .205 6c-27.274.931-34.686 7.348-49.452 20.131-1.594 1.38-3.264 2.825-5.042 4.335-17.069 14.493-31.077 16.422-37.326 16.422z" fill="#fff"/><path d="m1453.537 1670.238c-36.566 0-68.51-13.451-89.765-22.4-17.48-7.359-28.343-5.507-38.849-3.714-9 1.537-18.312 3.123-31.1-1-10.048-3.24-16.659-8.514-23.05-13.612-8.464-6.752-16.458-13.129-32.26-15.045-25.523-3.1-47.333 12.72-47.55 12.881a2.5 2.5 0 0 1 -2.97-4.022c.95-.7 23.571-17.168 51.122-13.822 17.21 2.086 26.14 9.21 34.776 16.1 6.319 5.041 12.288 9.8 21.467 12.763 11.626 3.75 19.933 2.334 28.728.833 11.213-1.914 22.807-3.891 41.629 4.036 17.539 7.383 44.043 18.542 73.834 21.357 34.469 3.255 65.228-5.046 94.049-25.38a2.5 2.5 0 1 1 2.762 4.171c-28.486 20.05-56.826 26.853-82.823 26.854z" fill="#5b2448"/><path d="m1234.75 1675.987c-18.506 0-33-8.945-33-20.365s14.5-20.366 33-20.366 33 8.946 33 20.366-14.494 20.365-33 20.365zm0-35.731c-15.178 0-28 7.037-28 15.366s12.824 15.365 28 15.365 28-7.036 28-15.365-12.821-15.366-28-15.366z" fill="#6d2a53"/><path d="m1357.424 1692.774c-86.19 0-180.31-2.607-181.748-2.647a2.5 2.5 0 0 1 -2.39-2.945c12.568-69.251 43.451-195.182 43.761-196.447a2.5 2.5 0 1 1 4.856 1.194c-.306 1.245-30.319 123.629-43.172 193.279 26.26.7 221.741 5.609 292.983-.328 21.534-1.8 50.751-8.211 68.763-28.475-4.074-9.122-28.45-57.623-100-93.63-.695-.349-1.454-.737-2.278-1.156-12.634-6.446-42.222-21.54-91.46-25.328a2.5 2.5 0 1 1 .382-4.984c50.237 3.863 80.45 19.276 93.351 25.858q1.22.621 2.252 1.144c75.83 38.163 99.972 90.509 102.733 97.015.022.043.042.088.062.133.058.139.1.262.139.36l.057.154a2.505 2.505 0 0 1 -.425 2.512c-19.019 22.481-50.284 29.473-73.162 31.379-26.295 2.192-69.411 2.911-114.704 2.912z" fill="#5b2448"/><path d="m1339.447 1602.483a7.5 7.5 0 0 1 -6.686-10.875c.865-1.71 21.757-42.038 71.221-53.6a7.5 7.5 0 1 1 3.412 14.607c-42.456 9.919-61.072 45.416-61.255 45.774a7.517 7.517 0 0 1 -6.692 4.094z" fill="#ffcf2d"/><path d="m1373.435 1615.555a7.5 7.5 0 0 1 -6.68-10.887c.856-1.683 21.5-41.349 70.351-52.712a7.5 7.5 0 1 1 3.4 14.609c-41.851 9.735-60.2 44.563-60.384 44.914a7.515 7.515 0 0 1 -6.687 4.076z" fill="#ffcf2d"/><path d="m1412.651 1626.01a7.5 7.5 0 0 1 -6.6-11.037c.782-1.457 19.688-35.806 64.259-45.608a7.5 7.5 0 0 1 3.221 14.651c-37.625 8.273-54.116 37.781-54.279 38.078a7.516 7.516 0 0 1 -6.601 3.916z" fill="#ffcf2d"/><path d="m128.961 1675.514s-87.361 77.086-123.508 156.892c0 0 205.514 69.593 281.277 85.164 41.118 8.451 64.772-.948 77.164-9.114 0 0 0-.047-.011-.149 0-.074-.009-.184-.025-.316a.009.009 0 0 0 -.006-.011c-.644-5.721-8.387-62.58-70.45-120.642-9.678-9.046-41.469-35.7-82.027-53.04-27.752-11.862-43.719-11.338-58.776-24.867-12.18-10.944-8.222-19.531-23.638-33.917z" fill="#fff"/><path d="m129.988 1674.487c12.334 9.25 10.278 22.611 24.667 35.972 13.169 12.228 51.2 15.45 82.022 34.347 1.116.683 2.216 1.36 3.316 2.038.307.19.609.369.908.557q9.753 6.082 18.5 12.3c1.166.824 2.321 1.654 3.459 2.479 1.645 1.2 3.257 2.393 4.848 3.6q1.874 1.41 3.692 2.829c1.007.778 1.994 1.559 2.98 2.348.613.48 1.223.968 1.825 1.454 1.451 1.181 2.887 2.356 4.294 3.533a.942.942 0 0 1 .1.073c.487.416.976.823 1.462 1.239 1.624 1.367 3.224 2.754 4.79 4.132.339.3.683.61 1.022.909 1.886 1.681 3.736 3.36 5.531 5.041q2.621 2.447 5.11 4.9.955.923 1.879 1.86 2.835 2.823 5.489 5.647l1.247 1.32c.416.44.823.878 1.228 1.324.786.848 1.553 1.7 2.322 2.544.822.914 1.627 1.823 2.42 2.737.38.439.763.869 1.142 1.308q3.975 4.6 7.523 9.114c1.019 1.29 2.006 2.57 2.973 3.853.651.845 1.282 1.694 1.9 2.549.311.427.623.846.934 1.273.992 1.355 1.956 2.71 2.889 4.047.222.328.445.649.675.98q2.151 3.111 4.118 6.17c.261.412.523.816.778 1.218.5.773.988 1.553 1.468 2.33q.4.636.791 1.3c.484.8.967 1.593 1.437 2.376.229.394.466.791.7 1.185s.452.778.682 1.172.452.778.673 1.17c.665 1.168 1.308 2.32 1.934 3.466l.62 1.136c.2.376.4.763.6 1.131.405.755.8 1.507 1.175 2.244.19.374.38.748.572 1.113.38.747.748 1.473 1.1 2.194l1.054 2.163c.351.721.688 1.429 1.008 2.131.185.391.37.781.538 1.167.628 1.356 1.219 2.684 1.788 4v.008c.292.677.578 1.342.855 2s.549 1.315.813 1.964.52 1.289.769 1.925c2.318 5.868 4.071 11.152 5.383 15.716.1.357.2.7.3 1.051-77.156 26.3-134.283-16.708-166.565-43.045-27.842-22.716-41.718-7.724-65.181-23.7-19.6-13.344-18.1-32.6-44.7-44.055-24.868-10.705-48.4.032-48.4.032s44.182-64.756 94.543-105.869z" fill="#5b2448"/><path d="m65.509 1750.36c-9.407 0-14.621-2.577-14.993-2.767a3 3 0 0 1 2.72-5.348c.24.116 14.2 6.679 38.56-4.142 2.114-.94 4.107-1.849 6.01-2.716 17.848-8.134 28.622-13.044 57.1-5.72a3 3 0 0 1 -1.495 5.811c-26.431-6.8-35.349-2.73-53.119 5.369-1.919.875-3.929 1.791-6.062 2.738-11.838 5.261-21.511 6.775-28.721 6.775z" fill="#fff"/><path d="m313.3 1901.7c-54.78 0-95.128-32.923-119.187-52.551-14.7-11.99-25.64-13.275-36.225-14.518-9.07-1.066-18.449-2.167-29.56-9.733-8.726-5.943-13.581-12.866-18.276-19.56-6.216-8.864-12.087-17.237-26.708-23.53-23.488-10.113-46.115.185-46.341.291a2.5 2.5 0 0 1 -2.12-4.529c1-.47 24.836-11.379 50.438-.354 15.923 6.853 22.482 16.206 28.825 25.251 4.641 6.618 9.025 12.869 17 18.3 10.1 6.876 18.467 7.859 27.328 8.9 11.3 1.326 22.978 2.7 38.8 15.609 14.745 12.03 37.028 30.209 64.816 41.31 32.145 12.841 64 13.552 97.39 2.169a2.5 2.5 0 1 1 1.48 4.777 147.287 147.287 0 0 1 -47.66 8.168z" fill="#5b2448"/><path d="m76.737 1841.92a51.256 51.256 0 0 1 -14.345-2.146c-17.755-5.217-29.141-17.888-25.921-28.844 1.606-5.465 6.553-9.487 13.929-11.323 6.9-1.717 15.24-1.332 23.477 1.089 17.755 5.218 29.141 17.889 25.921 28.845-1.606 5.465-6.553 9.486-13.929 11.322a37.936 37.936 0 0 1 -9.132 1.057zm-17.2-38.374a32.966 32.966 0 0 0 -7.931.913c-5.583 1.391-9.255 4.189-10.34 7.881-2.349 7.99 7.971 18.357 22.534 22.638 7.4 2.173 14.806 2.541 20.859 1.034 5.583-1.391 9.255-4.189 10.34-7.881 2.349-7.99-7.97-18.358-22.534-22.638a46.262 46.262 0 0 0 -12.926-1.947z" fill="#6d2a53"/><path d="m317.065 1923.348a154.83 154.83 0 0 1 -30.838-3.328c-75.027-15.42-282.413-82.66-284.499-83.336a2.5 2.5 0 0 1 -1.48-3.465c41.419-85.814 125.729-158.369 126.576-159.092a2.5 2.5 0 0 1 3.246 3.8c-.83.709-82.679 71.16-124.059 154.884 24.861 8.029 211.162 67.909 281.222 82.307 21.167 4.352 51.007 6.435 74-7.929-1.335-9.9-11.04-63.3-69.54-118.029q-.853-.8-1.859-1.751c-10.3-9.746-34.436-32.57-80.609-50.088a2.5 2.5 0 0 1 1.773-4.676c47.109 17.874 71.749 41.179 82.272 51.131q.995.94 1.838 1.733c61.967 57.973 70.386 114.965 71.209 122.036.011.063.02.127.026.191.015.13.023.244.028.338l.01.146a2.54 2.54 0 0 1 -1.113 2.321c-14.638 9.649-31.892 12.807-48.203 12.807z" fill="#5b2448"/><path d="m185.687 1799.077a7.5 7.5 0 0 1 -5.47-12.623c1.313-1.4 32.719-34.2 83.443-31.338a7.5 7.5 0 1 1 -.843 14.977c-43.525-2.459-71.4 26.352-71.678 26.643a7.5 7.5 0 0 1 -5.452 2.341z" fill="#ffcf2d"/><path d="m214.608 1821.214a7.5 7.5 0 0 1 -5.457-12.644c1.294-1.374 32.27-33.631 82.358-30.737a7.5 7.5 0 0 1 -.859 14.975c-43.175-2.48-70.314 25.763-70.583 26.049a7.475 7.475 0 0 1 -5.459 2.357z" fill="#ffcf2d"/><path d="m249.285 1842.306a7.5 7.5 0 0 1 -5.337-12.769c1.163-1.177 29-28.8 74.509-25.639a7.5 7.5 0 0 1 -1.039 14.965c-38.752-2.705-62.559 20.972-62.8 21.211a7.473 7.473 0 0 1 -5.333 2.232z" fill="#ffcf2d"/><path d="m973.253 798.285c100.233 21.093 272.722 56.547 377.732 185.537 116.481 143.081 42.139 415.221 42.139 415.221s-87.725 21.066-158.373-23.009c-71.849-44.824-123.238-77.713-143.793-38.658 0 0 12.513-24.784 57.555-94.555 52.417-81.194-58.583-169.583-289.832-193.222-23.639 225.083-248.722 528.277-514.915 656.749-57.556-32.889-92.5-93.528-103.806-141.833s-19.527-153.139-80.166-135.667c76.055-42.138 180.371-34.073 275.443-90.444 116.139-68.861 66.863-284.842 94.071-396.281z" fill="#21a0aa"/><g clip-path="url(#e-i2)" fill="#6ce0dc"><path d="m388.471 1357.862a2.5 2.5 0 0 1 -.323-4.978c17.413-2.291 46.928-16.736 78.953-38.641 30.593-20.925 58.39-45.141 72.544-63.2a2.5 2.5 0 1 1 3.935 3.084c-30.088 38.389-115.217 98.509-154.78 103.714a2.444 2.444 0 0 1 -.329.021z"/><path d="m858.169 1078.308a2.362 2.362 0 0 1 -.363-.027 2.5 2.5 0 0 1 -2.113-2.834 673.594 673.594 0 0 0 7.17-100.3 2.5 2.5 0 1 1 5-.117 679 679 0 0 1 -7.221 101.14 2.5 2.5 0 0 1 -2.473 2.138z"/><path d="m1152.11 1233.5a2.5 2.5 0 0 1 -2.285-3.514c35.146-79.331 10.483-145.431 10.23-146.09a2.5 2.5 0 0 1 4.666-1.794c.269.7 6.58 17.358 8.512 44.27a222.3 222.3 0 0 1 -18.836 105.64 2.5 2.5 0 0 1 -2.287 1.488z"/></g><path d="m576.043 717.628s-70.107 67.718-99.695 125.389-50.36 117.166-37 123.333c33.969 15.677 109.972-123.333 136.695-248.722z" fill="#5b2448"/><path d="m528.765 345.574c-32.752-16.873-129.5 17.472-190.138 199.388s-16.445 296 20.555 334.027a39.453 39.453 0 0 0 2.056 28.778c7.388 15.833 35.972 47.277 78.111 58.583-15.417-16.445 29.805-150.05 136.694-248.722 45.222-131.555 20.557-337.11-47.278-372.054z" fill="#66b0f0"/><g clip-path="url(#f-i2)" fill="#b0dcf7"><path d="m578.612 722.7a2.5 2.5 0 0 1 -2.378-3.273c23.893-73.518 29.435-161.438 15.2-241.214-12.59-70.582-38.971-123.55-67.207-134.943a2.5 2.5 0 1 1 1.871-4.637c14.908 6.016 29.39 22.373 41.881 47.3 12.266 24.482 22.079 56.087 28.378 91.4 14.37 80.561 8.766 169.363-15.372 243.638a2.5 2.5 0 0 1 -2.373 1.729z"/><path d="m889.512 686.213a2.5 2.5 0 0 1 -2.425-1.9c-34.387-139.057-145.539-340.731-201.578-365.748a2.5 2.5 0 1 1 2.039-4.565c27.354 12.212 69.007 65.511 111.424 142.575 42.01 76.326 76.765 161.014 92.969 226.537a2.5 2.5 0 0 1 -2.429 3.1z"/><path d="m673.532 461.072c-10.973 0-26.618-9.058-48.251-27.79-41.9-36.275-61.91-56.5-73.868-68.588-12.2-12.329-16.309-16.482-27.28-21.468a2.5 2.5 0 0 1 2.068-4.553c11.81 5.368 16.427 10.034 28.766 22.5 11.907 12.034 31.837 32.176 73.587 68.325 16.994 14.714 39.493 31.064 50.176 25.375 12.085-6.433 8.009-39.9 4.733-66.783-1.017-8.361-1.979-16.257-2.512-23.32a2.5 2.5 0 0 1 4.987-.375c.522 6.948 1.477 14.789 2.489 23.09 3.817 31.345 7.766 63.756-7.348 71.8a15.791 15.791 0 0 1 -7.547 1.787z"/><path d="m754.489 414.927c-5.69 0-15.187-4.981-32-16.4a2.5 2.5 0 1 1 2.808-4.136c6.1 4.144 13.92 9.309 20.265 12.488 8.08 4.046 9.9 2.914 10.08 2.772.071-.056 1.709-1.471-1.565-10.272-4.06-10.907-23.964-42.143-39-57.174a2.5 2.5 0 1 1 3.536-3.535c15.722 15.724 35.841 47.4 40.144 58.965 1.969 5.291 4.108 12.7-.034 15.95a6.6 6.6 0 0 1 -4.234 1.342z"/><path d="m355.584 883.031a2.5 2.5 0 0 1 -2.318-3.434c13.687-33.985 47.424-70.995 94.993-104.215 41.472-28.961 90.342-52.8 130.726-63.764a2.5 2.5 0 0 1 1.31 4.826c-39.858 10.823-88.147 34.388-129.173 63.037-46.783 32.67-79.888 68.889-93.217 101.983a2.5 2.5 0 0 1 -2.321 1.567z"/><path d="m416.226 756.614a2.5 2.5 0 0 1 -1.253-4.665c45.972-26.56 134.047-41.495 164.753-40.416a2.5 2.5 0 0 1 -.084 5c-.029 0-.059 0-.088 0-30.245-1.041-116.866 13.625-162.079 39.75a2.487 2.487 0 0 1 -1.249.331z"/></g><path d="m687.042 375.379c27.75 6.167 42.07 17.642 49.334 26.722 8.222 10.278 6.68 23.125 6.68 23.125s128.986 170.097 198.874 383.874l-52.2 68.049a14.912 14.912 0 0 1 -14.051 5.669l-86.886-13.079s-23.639-194.25-40.083-265.166-46.25-161.361-46.25-161.361c-11.306-7.194-9.25-14.388-11.306-32.888-1.943-17.485-4.112-34.945-4.112-34.945z" fill="#f94f46"/><path d="m701.536 448.5a32.262 32.262 0 0 1 -4.011-.241 2.5 2.5 0 1 1 .619-4.961c15.6 1.952 38.48-10.24 47.023-21.631a2.5 2.5 0 0 1 4 3c-8.818 11.762-30.58 23.833-47.631 23.833z" fill="#66b0f0"/><path d="m1162.9 713.517q-4.317 3.1-8.962 6.167c-41.481 27.339-102.182 52.426-180.642 78.583l-.041.021q-12.024 4.008-24.615 8.058c-.514.164-1.038.329-1.563.5q-5.1 1.635-10.287 3.279-6.029 1.913-12.283 4.08c-11.469 3.978-23.5 8.572-36.043 13.608-11.573 4.645-23.567 9.671-35.911 14.923-.473.206-.956.411-1.439.617-108.736 46.347-244.885 110.417-366.714 97.21-1.048-.113-2.1-.236-3.145-.36-1.86-.226-3.71-.462-5.56-.719a260.929 260.929 0 0 1 -35.921-7.6v-.02c12.189-49.775 57.473-141.5 136.273-214.24q2.974-.894 6.012-1.747c.237-.061.463-.134.7-.195 69.909-19.672 158.647-26.065 233.685-31.45 26.835-1.922 51.923-3.721 73.763-5.951q8.2-.847 15.756-1.768c42.19-5.21 102.757-23.279 133.611-42.139 33.577-20.534 41.152-12.3 23.639 10.278-39.056 50.361 22.344 18.7 79.139 1.028 46.249-14.389 26.722 9.25 21.583 13.361 15.416-7.194 40.083-12.333 15.416 17.472 16.44-9.246 19.811 10.987-16.451 37.004z" fill="#f4ada2"/><path d="m582.754 715.686c-20.072 20.442-88.933 115-101.5 224.517-1.86-.226-3.71-.462-5.56-.719a260.929 260.929 0 0 1 -35.921-7.6v-.02c12.189-49.775 57.473-141.5 136.273-214.24q2.974-.894 6.012-1.747c.234-.057.46-.13.696-.191z" fill="#9b3c82"/><path d="m973.253 798.285c42.677 8.76 261.593 67.343 384.926-78.6 28.778-20.556 69.911-29.23 44.195-34.945-9.25-2.055-23.639-1.027-23.639-1.027s11.305-28.778 15.416-50.361-5.139-21.584-20.555 3.083c4.111-22.611 0-42.139-22.611 0 2.055-24.667-1.028-38.028-35.972 17.472 2.055-17.472 0-26.722-27.75 10.278s-68.861 55.5-68.861 55.5h-64.75z" fill="#f4ada2"/><g clip-path="url(#g-i2)" fill="#9b3c82"><path d="m964.028 806.977a2.5 2.5 0 0 1 -.853-4.852c106.619-38.676 152.562-60.481 200.043-87.189a2.5 2.5 0 0 1 2.451 4.357c-47.714 26.84-93.844 48.738-200.789 87.533a2.5 2.5 0 0 1 -.852.151z"/><path d="m1094.555 703.171a2.5 2.5 0 0 1 -.847-4.854c21.285-7.662 52.5-22.173 80.349-47.793a2.5 2.5 0 0 1 3.385 3.68c-28.461 26.184-60.323 41-82.04 48.819a2.515 2.515 0 0 1 -.847.148z"/><path d="m1108.945 726.81a2.5 2.5 0 0 1 -.93-4.823c26.595-10.637 63.564-35.249 76.071-50.643a2.5 2.5 0 0 1 3.881 3.152c-14.165 17.435-53.611 42.341-78.1 52.134a2.488 2.488 0 0 1 -.922.18z"/><path d="m1191.867 746.773a2.5 2.5 0 0 1 -2.229-3.628c.362-.716 9.113-17.67 30.047-30.23a2.5 2.5 0 1 1 2.572 4.287c-19.635 11.781-28.077 28.04-28.159 28.2a2.5 2.5 0 0 1 -2.231 1.371z"/><path d="m1289.83 715.5a2.5 2.5 0 0 1 -2.041-3.941c.244-.345 24.41-34.938 30.409-71.931a2.5 2.5 0 0 1 4.935.8c-6.188 38.158-30.237 72.566-31.259 74.012a2.491 2.491 0 0 1 -2.044 1.06z"/><path d="m1323.746 716.532a2.5 2.5 0 0 1 -2.224-3.636c10.881-21.328 28.51-63.138 32.478-90.917a2.5 2.5 0 1 1 4.95.707c-4.055 28.383-21.942 70.857-32.975 92.481a2.5 2.5 0 0 1 -2.229 1.365z"/><path d="m1348.413 716.531a2.5 2.5 0 0 1 -2.2-3.69c14.059-25.955 25.384-65.79 30.81-92.016a2.5 2.5 0 1 1 4.9 1.014c-5.495 26.558-16.992 66.95-31.309 93.383a2.5 2.5 0 0 1 -2.201 1.309z"/><path d="m1358.691 725.781a2.5 2.5 0 0 1 -2-4 246.34 246.34 0 0 0 23.367-40.653 2.5 2.5 0 0 1 4.545 2.084 246.416 246.416 0 0 1 -23.912 41.569 2.5 2.5 0 0 1 -2 1z"/></g><path d="m925.62 823.982-37.154 3.834-14.461 1.49-18.366 1.9c-1.244-12.035-3.053-24.337-5.345-36.67q-1.2-6.522-2.6-13.033c-7.359-34.635-18.336-68.829-31.255-97.268 26.835-1.922 51.923-3.721 73.763-5.951a570.1 570.1 0 0 1 24.38 79.8q1.263 5.459 2.394 10.936c2.353 11.2 4.358 22.436 5.982 33.608.36 2.467.709 4.934 1.028 7.4.184 1.4.359 2.8.523 4.183q.602 4.899 1.111 9.771z" fill="#5b2448"/><ellipse cx="891.527" cy="802.71" fill="#5b2448" rx="60.81" ry="42.44" transform="matrix(.9334678 -.35866122 .35866122 .9334678 -228.587 373.164)"/><g clip-path="url(#h-i2)"><path d="m876.851 853.066c-22.395 0-41.306-9.55-47.767-26.365-9.381-24.417 11-55.045 45.428-68.275 16.529-6.35 33.833-7.82 48.72-4.137 15.214 3.763 26.129 12.439 30.736 24.429s2.309 25.743-6.471 38.724c-8.592 12.706-22.427 23.2-38.956 29.551a88.877 88.877 0 0 1 -31.69 6.073zm-43.1-28.158c8.394 21.843 41.137 29.66 73 17.417 15.582-5.986 28.583-15.818 36.608-27.683 7.837-11.589 9.948-23.71 5.944-34.131s-13.687-18.009-27.268-21.368c-13.907-3.439-30.144-2.037-45.727 3.951-31.856 12.24-50.945 39.97-42.553 61.814z" fill="#fff"/></g><ellipse cx="893.931" cy="808.868" fill="#fff" rx="59.032" ry="36.394" transform="matrix(.9334678 -.35866122 .35866122 .9334678 -230.635 374.437)"/><path d="m895.2 815.268a2.506 2.506 0 0 1 -2.365-1.691l-7.321-21.383a2.5 2.5 0 0 1 4.73-1.619l6.5 18.968 30.718-11.229a2.5 2.5 0 0 1 1.717 4.7l-33.115 12.105a2.494 2.494 0 0 1 -.864.149z" fill="#5b2448"/></svg></g><!--ITEM: Illustration component 3--><g transform="translate(1319.4444444444443 608.3333333333333) rotate(0.0 272.2222222222223 313.8888888888889)  scale(1.3027480006806196 1.303939535977538)"><svg width="417.92" height="481.447" viewBox="0.0 0.0 417.92 481.447"><path d="m381.187 481.447h-338.267a8.11 8.11 0 0 1 -8.109-8.109v-72.485a8.109 8.109 0 0 1 8.109-8.108h338.267a8.108 8.108 0 0 1 8.108 8.108 8.108 8.108 0 0 1 -8.108 8.109h-17.851a8.108 8.108 0 0 0 -8.109 8.109v40.049a8.108 8.108 0 0 0 8.109 8.109h17.851a8.109 8.109 0 0 1 8.108 8.109 8.109 8.109 0 0 1 -8.108 8.109z" fill="#ffcf2d"/><path d="m64.535 411.119h311.275v52.254h-311.275z" fill="#fff"/><g fill="#5b2448"><path d="m375.81 465.374h-311.275a2 2 0 0 1 -2-2v-52.255a2 2 0 0 1 2-2h311.275a2 2 0 0 1 2 2v52.255a2 2 0 0 1 -2 2zm-309.275-4h307.275v-48.255h-307.275z"/><path d="m350.945 448.012h-41.613a2 2 0 0 1 0-4h41.613a2 2 0 0 1 0 4z"/><path d="m218.4 432.681h-73.288a2 2 0 0 1 0-4h73.288a2 2 0 0 1 0 4z"/><path d="m202.066 448.012h-113.909a2 2 0 1 1 0-4h113.909a2 2 0 0 1 0 4z"/></g><path d="m411.294 231.5h-398.481a6.626 6.626 0 0 1 -6.627-6.626v-59.232a6.626 6.626 0 0 1 6.627-6.626h398.481a6.625 6.625 0 0 1 6.626 6.626 6.626 6.626 0 0 1 -6.626 6.626h-26.318a6.627 6.627 0 0 0 -6.627 6.626v32.728a6.627 6.627 0 0 0 6.627 6.626h26.318a6.625 6.625 0 0 1 6.626 6.626 6.625 6.625 0 0 1 -6.626 6.626z" fill="#ffcf2d"/><path d="m40.71 174.354h361.547v41.803h-361.547z" fill="#fff"/><path d="m402.256 218.158h-361.545a2 2 0 0 1 -2-2v-41.8a2 2 0 0 1 2-2h361.545a2 2 0 0 1 2 2v41.8a2 2 0 0 1 -2 2zm-359.545-4h357.545v-37.8h-357.545z" fill="#5b2448"/><path d="m365.39 189.654h-139.179a2 2 0 0 1 0-4h139.179a2 2 0 0 1 0 4z" fill="#5b2448"/><path d="m184.024 203.861h-125.308a2 2 0 0 1 0-4h125.308a2 2 0 0 1 0 4z" fill="#5b2448"/><path d="m347.858 392.668h-341.232a6.627 6.627 0 0 1 -6.626-6.627v-59.232a6.627 6.627 0 0 1 6.626-6.626h341.232a6.627 6.627 0 0 1 6.626 6.626 6.626 6.626 0 0 1 -6.626 6.626h-20.816a6.627 6.627 0 0 0 -6.627 6.627v32.727a6.627 6.627 0 0 0 6.627 6.626h20.816a6.627 6.627 0 0 1 6.626 6.626 6.627 6.627 0 0 1 -6.626 6.627z" fill="#9b3c82"/><path d="m29.723 335.08h311.275v42.884h-311.275z" fill="#fff"/><path d="m341 379.964h-311.277a2 2 0 0 1 -2-2v-42.883a2 2 0 0 1 2-2h311.277a2 2 0 0 1 2 2v42.883a2 2 0 0 1 -2 2zm-309.276-4h307.276v-38.883h-307.277z" fill="#5b2448"/><path d="m218.4 351.322h-173.174a2 2 0 0 1 0-4h173.174a2 2 0 1 1 0 4z" fill="#5b2448"/><path d="m309.337 365.529h-45.647a2 2 0 0 1 0-4h45.647a2 2 0 0 1 0 4z" fill="#5b2448"/><path d="m389.306 320.139h-338.267a8.109 8.109 0 0 1 -8.109-8.109v-72.484a8.109 8.109 0 0 1 8.109-8.109h338.267a8.108 8.108 0 0 1 8.108 8.109 8.109 8.109 0 0 1 -8.108 8.109h-17.852a8.108 8.108 0 0 0 -8.108 8.108v40.05a8.109 8.109 0 0 0 8.108 8.109h17.852a8.108 8.108 0 0 1 8.108 8.108 8.108 8.108 0 0 1 -8.108 8.109z" fill="#f94f46"/><path d="m72.654 249.312h311.275v52.614h-311.275z" fill="#fff"/><path d="m383.929 303.926h-311.275a2 2 0 0 1 -2-2v-52.614a2 2 0 0 1 2-2h311.275a2 2 0 0 1 2 2v52.614a2 2 0 0 1 -2 2zm-309.275-4h307.275v-48.614h-307.275z" fill="#5b2448"/><path d="m158.461 268.872h-70.3a2 2 0 1 1 0-4h70.3a2 2 0 0 1 0 4z" fill="#5b2448"/><path d="m251.2 286.205h-163.043a2 2 0 1 1 0-4h163.043a2 2 0 1 1 0 4z" fill="#5b2448"/><path d="m342.836 159h-261.566a8.109 8.109 0 0 1 -8.109-8.108v-72.492a8.11 8.11 0 0 1 8.109-8.1h261.566a8.109 8.109 0 0 1 8.109 8.109 8.109 8.109 0 0 1 -8.109 8.109h-10.479a8.108 8.108 0 0 0 -8.109 8.109v40.049a8.108 8.108 0 0 0 8.109 8.109h10.479a8.108 8.108 0 0 1 8.109 8.109 8.108 8.108 0 0 1 -8.109 8.106z" fill="#66b0f0"/><path d="m96.454 88.225h243.924v52.254h-243.924z" fill="#fff"/><path d="m340.377 142.479h-243.923a2 2 0 0 1 -2-2v-52.254a2 2 0 0 1 2-2h243.923a2 2 0 0 1 2 2v52.254a2 2 0 0 1 -2 2zm-241.923-4h239.923v-48.254h-239.923z" fill="#5b2448"/><path d="m166.629 107.729h-58.029a2 2 0 0 1 0-4h58.027a2 2 0 0 1 0 4z" fill="#5b2448"/><path d="m277.684 125.063h-169.084a2 2 0 0 1 0-4h169.084a2 2 0 0 1 0 4z" fill="#5b2448"/><path d="m303.29 70.277h-252.022a6.242 6.242 0 0 1 -6.042-6.424v-57.429a6.242 6.242 0 0 1 6.042-6.424h252.022a6.241 6.241 0 0 1 6.041 6.424 6.241 6.241 0 0 1 -6.041 6.425h-13.3a6.241 6.241 0 0 0 -6.041 6.424v31.727a6.241 6.241 0 0 0 6.041 6.424h13.3a6.242 6.242 0 0 1 6.041 6.425 6.241 6.241 0 0 1 -6.041 6.428z" fill="#f94f46"/><path d="m67.371 14.709h231.913v40.722h-231.913z" fill="#fff"/><path d="m299.284 57.431h-231.912a2 2 0 0 1 -2-2v-40.722a2 2 0 0 1 2-2h231.912a2 2 0 0 1 2 2v40.722a2 2 0 0 1 -2 2zm-229.912-4h227.912v-36.722h-227.912z" fill="#5b2448"/><path d="m275.636 30.282h-125.824a2 2 0 0 1 0-4h125.824a2 2 0 0 1 0 4z" fill="#5b2448"/><path d="m193.143 43.5h-114.222a2 2 0 0 1 0-4h114.222a2 2 0 0 1 0 4z" fill="#5b2448"/></svg></g><!--ITEM: Illustration component 4--><g transform="translate(1247.2222222222222 1094.4444444444443) rotate(0.0 319.44444444444446 127.77777777777783)  scale(1.276896719041639 1.2836375833457516)"><svg width="500.345" height="199.087" viewBox="0.0 0.0 500.345 199.087"><path d="m459.79 98.132c-3.444 2.024-6.846 4.186-10.089 6.5-.042.052-.084.095-.127.148-119.423 141.102-331.235 84.427-372.544 75.938l174.657-76.089h62.684s39.805-17.921 66.68-53.741c26.854-35.808 28.857-26.864 26.864-9.961a.011.011 0 0 0 .011-.011c2.745-4.355 5.277-8.266 7.641-11.784 26.631-39.751 29-27.055 27.172-5.108l.19-.35c2.788-5.171 5.267-9.357 7.482-12.7 14.646-22.053 17.507-7.015 14.529 11.255a.363.363 0 0 1 -.021.106c-.085.562-.18 1.113-.286 1.685a102.341 102.341 0 0 1 7.26-10.364l.01-.022c10.4-12.854 15.907-9.823 12.632 7.4-3.984 20.9-14.935 48.766-14.935 48.766a1.37 1.37 0 0 0 .138-.011c.541-.032 2.607-.159 5.415-.212 4.875-.095 12 .032 17.338 1.219 22.003 4.88-6.536 12.012-32.701 27.336z" fill="#f4ada2"/><g fill="#9b3c82"><path d="m314.35 104.629c-16.331 11.084-23.431 24.745-23.5 24.893a2.417 2.417 0 1 1 -4.313-2.183c.286-.583 6.146-11.922 19.658-22.71z"/><path d="m415.567 29.132c-6.306 36.445-29.08 69.021-30.055 70.409a2.418 2.418 0 0 1 -4.4-1.388 2.388 2.388 0 0 1 .446-1.4c.2-.286 17.93-25.667 26.355-55.827a.011.011 0 0 0 .011-.011c2.747-4.354 5.276-8.265 7.643-11.783z"/><path d="m450.411 10.978c-1.981 13.682-7.28 30.733-13.395 46.958a440.846 440.846 0 0 1 -18.493 42.316 2.413 2.413 0 0 1 -4.567-1.1 2.481 2.481 0 0 1 .254-1.1c8.881-17.379 22.372-48.822 28.719-74.373 2.788-5.179 5.271-9.362 7.482-12.701z"/><path d="m471.893 13.66c-2.65 12.187-6.465 26.843-11.149 41.478-5.182 16.193-11.435 32.365-18.366 45.167a2.421 2.421 0 0 1 -4.546-1.156 2.466 2.466 0 0 1 .286-1.155c11.382-21 20.909-51.408 26.8-75.655-.085.562-.18 1.113-.286 1.685a102.341 102.341 0 0 1 7.261-10.364z"/><path d="m475.156 69.572a236.411 236.411 0 0 1 -15.366 28.56c-3.444 2.024-6.846 4.186-10.089 6.5-.042.052-.084.095-.127.148a238.029 238.029 0 0 0 20.167-34.993c.541-.035 2.607-.162 5.415-.215z"/></g><path d="m260.645 98.913q-4.18 3-8.68 5.966c-1.314.869-2.649 1.728-4 2.6-.011.01-.022.01-.032.021-39.1 24.872-94.752 47.9-165.787 71.777-.022.01-.053.01-.075.021-1.653.561-3.316 1.123-4.991 1.674l-.042.021c-7.763 2.583-81.682-115.712-76.807-116.305 40.853-5.045 111.138-24.136 141.012-42.395 32.5-19.881 39.836-11.912 22.88 9.951-37.812 48.748 21.64 18.1 76.62.986 44.785-13.926 25.879 8.965 20.9 12.939.18-.085.371-.169.562-.254a66.947 66.947 0 0 1 12.409-4.335c11.371-2.585 19.341.446 2.056 21.386-.032.043-.063.074-.1.117 3.5-1.961 6.379-2.554 8.382-2.014 7.125 1.94 3.098 18.185-24.307 37.844z" fill="#f4ada2"/><path d="m77 181.158c90.3-33.044 133.832-53.2 175.577-76.206 0 0 9.979-.014 9.594.2-43.221 24.248-85.536 44.461-176.481 77.971z" fill="#9b3c82"/><path d="m274.612 41.58a222.608 222.608 0 0 1 -42.051 30.2 251.322 251.322 0 0 1 -37.271 16.97 2.422 2.422 0 0 1 -1.643-4.557c18.281-6.581 44.139-18.376 68.556-38.278a66.947 66.947 0 0 1 12.409-4.335z" fill="#9b3c82"/><path d="m284.955 61.069a.213.213 0 0 1 -.042.064c-13.713 16.882-51.907 40.991-75.613 50.476a2.421 2.421 0 1 1 -1.8-4.494c23.082-9.23 54.249-29.344 69.17-44.149-.032.043-.063.074-.1.117 3.5-1.961 6.382-2.554 8.385-2.014z" fill="#9b3c82"/></svg></g><!--ITEM: Illustration component 5--><g transform="translate(1380.5555555555554 2116.6666666666665) rotate(0.0 752.7777777777777 318.05555555555566)  scale(1.3976785333184385 1.3961868612597537)"><svg width="1077.183" height="455.606" viewBox="0.0 0.0 1077.183 455.606"><path d="m5 455.607h-.043a5 5 0 0 1 -4.957-5.043l1.914-223.424a5 5 0 0 1 4.972-4.957l544.723-2.983-.935-214.178a5 5 0 0 1 1.461-3.554 4.852 4.852 0 0 1 3.551-1.468l235.4.619 281.107.556a5 5 0 0 1 -.01 10h-.009l-281.111-.556-230.363-.605.936 214.134a5 5 0 0 1 -4.973 5.021l-544.791 2.986-1.872 218.495a5 5 0 0 1 -5 4.957z" fill="#ffcf2d"/></svg></g><!--ITEM: Illustration component 6--><g transform="translate(1963.888888888889 1500.0) rotate(-25.00280597146002 370.83333333333337 266.66666666666663)  scale(1.0626129772505308 1.0589027914001208)"><svg width="697.965" height="503.666" viewBox="0.0 0.0 697.965 503.666"><clipPath id="a-i6"><path d="m587.614 319.8c48.315 7.73 84.069-26.091 94.7-5.8 10.234 19.538-14.712 61.145-86 76.338-58.945 12.562-92.766 1.932-92.766 1.932-126.772 80.4-312.116 8.7-312.116 8.7-52.181 15.461-69.521-6.391-111.125 10.63-42.521 17.389-43.487 32.85-60.881 32.85-20.481 0-25.985-24.65-10.626-50.25 26.09-43.484 77.3-25.124 114.99-83.1 7.4-11.38 24.9-30.626 36.692-41.9 10.207-9.76 21.762-17.758 32.02-22.033 34.742-14.458 73.763-7.246 111.705-15.289q1.512-.312 3-.655c44.687-10.052 70.53-29.172 96.806-50.145a266.48 266.48 0 0 0 30.2-28.052 203.822 203.822 0 0 0 26.676-35.911c25.661-44.726 52.793-76.165 86.463-70.66 31.743 5.181 52.3 42.4 59.1 65 10.583-34.891 27.28-55.863 41.184-50.557s14.355 56.582 5.3 123.827c-5.27 39.142-20.882 72.717-36.94 98.1-16.826 26.617-22.034 31.337-28.382 36.975z" fill="#000000"/></clipPath><g fill="#5b2448"><path d="m503.637 94.138c17.984 5.078 25.023 15.714 36.717 11.847 17.376-5.745 5.976-52.052-29.52-83.058-30.289-26.456-70.973-33.79-101-1.653-32.353 34.623-15.1 64.6 14.294 68.814 20.029 2.875 50.31-4.195 79.509 4.05z"/><path d="m228.148 412.562s-76.8 23.217-98.776 73.092c-19.04 43.207-60.778.616-34.577-43.11 26.9-44.885 57.852-66.235 57.852-66.235z"/><path d="m576.424 333.615s69.638 10.932 107.327-40.131c28.931-39.2 10.266-72.8-25.2-43.864-41.5 33.854-89.6 27.065-89.6 27.065z"/></g><path d="m587.614 319.8c48.315 7.73 84.069-26.091 94.7-5.8 10.234 19.538-14.712 61.145-86 76.338-58.945 12.562-92.766 1.932-92.766 1.932-126.772 80.4-312.116 8.7-312.116 8.7-52.181 15.461-69.521-6.391-111.125 10.63-42.521 17.389-43.487 32.85-60.881 32.85-20.481 0-25.985-24.65-10.626-50.25 26.09-43.484 77.3-25.124 114.99-83.1 7.4-11.38 24.9-30.626 36.692-41.9 10.207-9.76 21.762-17.758 32.02-22.033 34.742-14.458 73.763-7.246 111.705-15.289q1.512-.312 3-.655c44.687-10.052 70.53-29.172 96.806-50.145a266.48 266.48 0 0 0 30.2-28.052 203.822 203.822 0 0 0 26.676-35.911c25.661-44.726 52.793-76.165 86.463-70.66 31.743 5.181 52.3 42.4 59.1 65 10.583-34.891 27.28-55.863 41.184-50.557s14.355 56.582 5.3 123.827c-5.27 39.142-20.882 72.717-36.94 98.1-16.826 26.617-22.034 31.337-28.382 36.975z" fill="#ffcf2d"/><g clip-path="url(#a-i6)" fill="#9b3c82"><path d="m503.066 397.186a2.6 2.6 0 0 1 -.428-.037c-28.118-4.848-45.481-14.37-46.206-14.773a2.5 2.5 0 0 1 2.427-4.376c.17.095 17.407 9.524 44.628 14.217a2.5 2.5 0 0 1 -.421 4.965z"/><path d="m591.107 319.948c-13.037 0-31.3-8.621-32.108-9.007a2.5 2.5 0 0 1 2.15-4.514c.2.094 19.83 9.365 31.588 8.461a2.5 2.5 0 0 1 .383 4.986c-.654.05-1.327.074-2.013.074z"/><path d="m185.146 407.815a2.5 2.5 0 0 1 -.587-4.93c40.815-9.895 77.55-33.817 91.394-51.3a2.5 2.5 0 1 1 3.92 3.1c-19.242 24.305-62.862 45.477-94.137 53.058a2.491 2.491 0 0 1 -.59.072z"/><path d="m185.146 407.815a2.5 2.5 0 0 1 -.657-4.913c32.218-8.786 73.98-29.235 91.464-51.319a2.5 2.5 0 1 1 3.92 3.1c-8.66 10.94-23.215 22.066-42.089 32.177a260.275 260.275 0 0 1 -51.978 20.864 2.518 2.518 0 0 1 -.66.091z"/></g><path d="m640.011 161.723a16.914 16.914 0 0 1 -3.954 5.918 22.865 22.865 0 0 1 -5.689 4.074 23.863 23.863 0 0 1 -20.577 1.031 23.538 23.538 0 0 1 -6.055-3.691 19.964 19.964 0 0 1 -7.027-11.945 2.24 2.24 0 0 1 4.253-1.272l.036.082a19.7 19.7 0 0 0 6.7 8.038 20.091 20.091 0 0 0 4.62 2.389 19.875 19.875 0 0 0 5.051 1.179 22.513 22.513 0 0 0 10.291-1.629 18.967 18.967 0 0 0 8.38-6.2l.057-.078a2.239 2.239 0 0 1 3.909 2.1z" fill="#9b3c82"/><path d="m655.392 56.872c-2.131 9.172-7.31 16.221-13.531 15.386s-9.266-9-9-18.408c.238-8.348 4.866-16.548 13.531-15.386s11.087 9.426 9 18.408z" fill="#5b2448"/><path d="m497.111 99.854c23.374-5.71 32.205-20.252 47.265-15.283 22.376 7.383 7.737 67.014-37.941 106.963-38.975 34.088-92.273 49.647-130.042 2.211-42.059-52.823-9.842-87.817 17.264-92.044 23.108-3.601 83.943 2.92 103.454-1.847z" fill="#5b2448"/><ellipse cx="587.714" cy="109.409" fill="#5b2448" rx="13.152" ry="9.394" transform="matrix(.13296566 -.99112065 .99112065 .13296566 401.126 677.356)"/><path d="m213.834 242.764s-44.734 3.973-73.634-55.434c-6.1-12.543-16.5-15.74-16.508 4.284-.019 35.449 24.047 71.325 52.207 90.377z" fill="#ffcf2d"/><path d="m248 299.213c-40.43 12.076-80.493 4.08-87.519-30.017 10.207-9.76 21.762-17.758 32.02-22.033 34.742-14.458 73.763-7.246 111.705-15.289q1.512-.312 3-.655a25.372 25.372 0 0 1 1.124 3.043c7.109 23.786-19.903 52.854-60.33 64.951z" fill="#5b2448"/></svg></g></svg>